<svg id="Group_1" data-name="Group 1" xmlns="http://www.w3.org/2000/svg" width="38" height="38" viewBox="0 0 38 38">
  <path id="Path_1" data-name="Path 1" d="M36.142,7.832,30.168,1.858A6.333,6.333,0,0,0,25.692,0H12.308A6.333,6.333,0,0,0,7.832,1.858L1.858,7.832A6.333,6.333,0,0,0,0,12.308V31.667A6.333,6.333,0,0,0,6.333,38H31.667A6.333,6.333,0,0,0,38,31.667V12.308A6.333,6.333,0,0,0,36.142,7.832Zm-25.333-3a2.217,2.217,0,0,1,1.5-.612H25.692a2.217,2.217,0,0,1,1.5.612l3.61,3.61H7.2ZM31.667,33.778H6.333a2.111,2.111,0,0,1-2.111-2.111v-19H33.778v19a2.111,2.111,0,0,1-2.111,2.111Z" fill="#5044b8"/>
  <path id="Path_2" data-name="Path 2" d="M25.333,16.889A2.111,2.111,0,0,0,23.222,19a4.222,4.222,0,1,1-8.444,0,2.111,2.111,0,1,0-4.222,0,8.444,8.444,0,0,0,16.889,0,2.111,2.111,0,0,0-2.111-2.111Z" fill="#5044b8"/>
</svg>
